<?xml version="1.0" encoding="UTF-8" standalone="no"?><!DOCTYPE svg PUBLIC "-//W3C//DTD SVG 1.1//EN" "http://www.w3.org/Graphics/SVG/1.1/DTD/svg11.dtd"><svg width="100%" height="100%" viewBox="0 0 1600 1600" version="1.1" xmlns="http://www.w3.org/2000/svg" xmlns:xlink="http://www.w3.org/1999/xlink" xml:space="preserve" xmlns:serif="http://www.serif.com/" style="fill-rule:evenodd;clip-rule:evenodd;stroke-linejoin:round;stroke-miterlimit:2;"><g><path d="M335.863,802.168l0.625,110.197l-5.237,3.618l-315.232,-121.296l-0.301,-7.061l345.849,-168.159l-12.224,-277.068l4.27,-4l259.178,28.496l182.432,-344.442l7.048,0.55l72.64,211.068l-0.645,3.674l-217.921,270.003l-3.367,1.415l-166.873,-16.02l10.893,209.472l-1.858,3.5l-159.28,96.054Zm-3.865,-2.168l161.156,-97.186l-11.126,-213.934l171.322,16.447l217.921,-270.003l-72.64,-211.068l-183.657,346.755l-261.779,-28.782l12.335,279.597l-348.125,169.266l315.232,121.296l-0.638,-112.387Z"/><path d="M331.997,800l0.638,112.387l-315.232,-121.296l348.125,-169.266l-12.335,-279.597l261.779,28.782l183.657,-346.755l72.64,211.068l-217.921,270.003l-171.322,-16.447l11.126,213.934l-161.156,97.186Z" style="fill:#fff;"/><path d="M1298.245,910.546l42.091,-77.394l8.162,-110.189l4.932,-3.411l230.256,67.843l0.438,7.234l-280.967,121.296l-4.912,-5.378Zm3.385,1.841l280.967,-121.296l-230.256,-67.843l-8.223,111.016l-42.488,78.123Z"/><path d="M1301.629,912.387l42.488,-78.123l8.223,-111.016l230.256,67.843l-280.967,121.296Z" style="fill:#fff;"/><path d="M1219.112,954.439l31.523,276.856l-4.362,4.252l-194.961,-27.267l-111.33,45.605l-137.808,323.37l-6.899,0.386l-153.999,-272.405l2.589,-5.673l154.42,-31.276l194.644,-161.496l2.513,-0.887l97.432,1.321l10.588,-54.617l1.187,-2.114l108.038,-98.465l6.424,2.412Zm-3.828,0.436l-108.038,98.465l-11.202,57.78l-100.654,-1.365l-195.39,162.115l-155.369,31.468l153.999,272.405l138.428,-324.826l113.757,-46.599l195.992,27.411l-31.523,-276.856Z"/><path d="M1215.283,954.875l31.523,276.856l-195.992,-27.411l-113.757,46.599l-138.428,324.826l-153.999,-272.405l155.369,-31.468l195.39,-162.115l100.654,1.365l11.202,-57.78l108.038,-98.465Z" style="fill:#fff;"/><path d="M404.19,912.838c0,0 -14.297,-114.559 238.008,-226.008c18.118,-8.003 23.546,-23.345 32.695,-50.314c22.505,-66.338 63.955,-200.99 333.462,-468.344c7.73,-7.668 15.43,-10.255 22.83,-9.147c10.387,1.555 20.666,11.041 29.976,26.312c33.53,54.999 57.996,186.024 60.66,237.557c6.677,129.17 -41.475,232.087 -41.475,232.087l-6.39,0.905l-93.984,-107.41l-0,108.985l-4.004,3.85l-94.214,-3.695l94.061,84.84l46.077,-51.918l6.399,0.984l41.292,92.263l50.875,-62.958l5.601,-0.419l71.54,65.579l79.649,-65.711l6.206,2.102l21.929,94.569l-1.034,3.6c0,0 -215.078,214.04 -388.457,249.121c-3.12,0.631 -7.95,3.343 -14.223,7.454c-15.886,10.413 -39.954,29.759 -66.942,51.68c-40.78,33.123 -88.172,72.091 -124.239,95.362c-15.859,10.233 -29.617,17.442 -39.762,20.014c-3.513,0.89 -6.342,0.502 -8.643,-0.679c-2.269,-1.164 -4.093,-3.168 -5.432,-5.952c-2.031,-4.222 -2.957,-10.561 -3.375,-17.775c-0.676,-11.673 -0.117,-25.842 -2.661,-35.777c-1.287,-5.03 -3.175,-8.979 -7.467,-9.643c-18.961,-2.934 -68.904,5.002 -118.067,16.075c-49.196,11.081 -97.629,25.323 -113.398,35.513c-50.658,32.733 -54.09,67.106 -59.81,88.034c-2.891,10.577 -6.63,17.998 -15.061,21.384c-22.101,8.875 -39.323,2.037 -52.094,-14.782c-11.983,-15.783 -19.918,-40.859 -23.982,-69.872c-8.41,-60.041 -0.438,-137.001 19.945,-181.252c9.244,-20.068 21.243,-33.468 35.025,-36.682c6.25,-1.458 12.743,1.915 18.937,8.481c7.692,8.154 15.327,21.222 22.75,31.624c3.776,5.292 7.447,9.872 11.104,12.449c2.427,1.71 4.784,2.424 7.111,0.744c18.23,-13.157 70.318,-79.545 101.697,-128.167c13.177,-20.417 22.758,-37.573 24.223,-46.16c0.264,-1.546 0.12,-2.828 -0.541,-3.855c-0.75,-1.166 -2.037,-1.975 -3.635,-2.637c-2.883,-1.194 -6.672,-1.786 -11.025,-2.007c-27.911,-1.421 -77.246,12.85 -77.246,12.85l-4.893,-3.252Zm3.827,-0.451c0,0 102.336,-29.467 97.311,0c-5.025,29.467 -101.194,157.844 -127.463,176.804c-18.889,13.633 -40.014,-57.63 -61.282,-52.67c-71.498,16.675 -82.171,335.807 18.794,295.261c24.446,-9.817 -0.023,-61.109 74.216,-109.079c31.896,-20.61 195.77,-58.099 234.146,-52.159c24.035,3.72 1.939,76.009 26.041,69.899c54.788,-13.889 217.002,-168.817 245.349,-174.552c172.548,-34.912 386.501,-248.074 386.501,-248.074l-21.929,-94.569l-82.234,67.843l-74.011,-67.843l-54.823,67.843l-43.858,-97.996l-48.655,54.823l-104.849,-94.569l104.849,4.112l0,-119.24l100.737,115.128c0,0 47.742,-102.108 41.117,-230.256c-3.776,-73.051 -51.518,-307.129 -106.905,-252.185c-383.83,380.763 -303.842,491.41 -367.313,519.447c-248.938,109.962 -235.738,222.033 -235.738,222.033Z"/><path d="M408.016,912.387c0,0 -13.2,-112.071 235.738,-222.033c63.472,-28.037 -16.516,-138.684 367.313,-519.447c55.387,-54.944 103.128,179.134 106.905,252.185c6.624,128.148 -41.117,230.256 -41.117,230.256l-100.737,-115.128l0,119.24l-104.849,-4.112l104.849,94.569l48.655,-54.823l43.858,97.996l54.823,-67.843l74.011,67.843l82.234,-67.843l21.929,94.569c0,0 -213.954,213.161 -386.501,248.074c-28.347,5.736 -190.561,160.663 -245.349,174.552c-24.102,6.11 -2.006,-66.18 -26.041,-69.899c-38.376,-5.939 -202.25,31.55 -234.146,52.159c-74.239,47.97 -49.77,99.261 -74.216,109.079c-100.965,40.546 -90.293,-278.586 -18.794,-295.261c21.268,-4.96 42.393,66.303 61.282,52.67c26.269,-18.96 122.438,-147.337 127.463,-176.804c5.025,-29.467 -97.311,0 -97.311,0Z" style="fill:#fff;"/></g></svg>