<?xml version="1.0" encoding="UTF-8" standalone="no"?><!DOCTYPE svg PUBLIC "-//W3C//DTD SVG 1.1//EN" "http://www.w3.org/Graphics/SVG/1.1/DTD/svg11.dtd"><svg width="100%" height="100%" viewBox="0 0 1600 1600" version="1.1" xmlns="http://www.w3.org/2000/svg" xmlns:xlink="http://www.w3.org/1999/xlink" xml:space="preserve" xmlns:serif="http://www.serif.com/" style="fill-rule:evenodd;clip-rule:evenodd;stroke-linejoin:round;stroke-miterlimit:2;"><g><path d="M339.266,804.078l0.614,108.268l-9.848,6.804l-315.232,-121.296l-0.566,-13.279l343.845,-167.185l-12.125,-274.842l8.031,-7.522l256.888,28.244l181.353,-342.406l13.254,1.033l72.64,211.068l-1.213,6.909l-217.921,270.003l-6.331,2.662l-162.957,-15.644l10.689,205.542l-3.494,6.581l-157.628,95.058Zm-7.269,-4.078l161.156,-97.186l-11.126,-213.934l171.322,16.447l217.921,-270.003l-72.64,-211.068l-183.657,346.755l-261.779,-28.782l12.335,279.597l-348.125,169.266l315.232,121.296l-0.638,-112.387Z"/><path d="M331.997,800l0.638,112.387l-315.232,-121.296l348.125,-169.266l-12.335,-279.597l261.779,28.782l183.657,-346.755l72.64,211.068l-217.921,270.003l-171.322,-16.447l11.126,213.934l-161.156,97.186Z" style="fill:#fff;"/><path d="M1295.264,908.925l41.742,-76.752l8.108,-109.46l9.274,-6.415l230.256,67.843l0.824,13.603l-280.967,121.296l-9.237,-10.114Zm6.365,3.462l280.967,-121.296l-230.256,-67.843l-8.223,111.016l-42.488,78.123Z"/><path d="M1301.629,912.387l42.488,-78.123l8.223,-111.016l230.256,67.843l-280.967,121.296Z" style="fill:#fff;"/><path d="M1222.483,954.055l31.523,276.856l-8.203,7.996l-194.053,-27.14l-109.193,44.73l-137.262,322.089l-12.973,0.725l-153.999,-272.405l4.869,-10.667l153.583,-31.107l193.988,-160.952l4.725,-1.669l94.595,1.282l10.048,-51.832l2.233,-3.976l108.038,-98.465l12.08,4.536Zm-7.199,0.82l-108.038,98.465l-11.202,57.78l-100.654,-1.365l-195.39,162.115l-155.369,31.468l153.999,272.405l138.428,-324.826l113.757,-46.599l195.992,27.411l-31.523,-276.856Z"/><path d="M1215.283,954.875l31.523,276.856l-195.992,-27.411l-113.757,46.599l-138.428,324.826l-153.999,-272.405l155.369,-31.468l195.39,-162.115l100.654,1.365l11.202,-57.78l108.038,-98.465Z" style="fill:#fff;"/><path d="M400.82,913.234c0,0 -15.267,-116.748 240.007,-229.508c17.305,-7.644 22.114,-22.541 30.853,-48.3c22.565,-66.517 64.051,-201.587 334.285,-469.663c8.684,-8.615 17.407,-11.339 25.722,-10.094c11.129,1.666 22.396,11.539 32.371,27.901c33.757,55.372 58.469,187.266 61.151,239.148c6.724,130.07 -41.79,233.699 -41.79,233.699l-12.017,1.702l-88.038,-100.615l0,99.956l-7.53,7.24l-84.85,-3.327l84.563,76.272l43.807,-49.36l12.033,1.85l39.033,87.214l47.399,-58.656l10.532,-0.787l69.365,63.585l77.373,-63.833l11.67,3.952l21.929,94.569l-1.944,6.77c0,0 -216.069,214.814 -390.178,250.042c-2.871,0.581 -7.262,3.182 -13.036,6.966c-15.821,10.371 -39.785,29.645 -66.663,51.476c-40.876,33.201 -88.387,72.253 -124.539,95.58c-16.249,10.484 -30.373,17.816 -40.768,20.452c-4.484,1.137 -8.089,0.558 -11.025,-0.949c-2.878,-1.477 -5.243,-3.969 -6.941,-7.5c-2.178,-4.529 -3.256,-11.312 -3.704,-19.049c-0.664,-11.462 -0.063,-25.377 -2.56,-35.132c-0.492,-1.923 -1.095,-3.646 -1.959,-5.04c-0.662,-1.067 -1.483,-1.897 -2.739,-2.092c-18.76,-2.903 -68.159,5.076 -116.803,16.032c-48.706,10.97 -96.69,24.965 -112.303,35.053c-49.506,31.988 -52.789,65.627 -58.379,86.079c-3.223,11.791 -7.671,19.863 -17.069,23.638c-23.78,9.55 -42.319,2.219 -56.06,-15.879c-12.261,-16.148 -20.482,-41.769 -24.64,-71.453c-8.498,-60.67 -0.373,-138.428 20.224,-183.142c9.784,-21.239 22.749,-35.165 37.336,-38.567c6.34,-1.479 12.931,0.872 19.23,6.561c6.705,6.057 13.444,16.237 19.983,26.07c4.812,7.237 9.491,14.269 14.133,18.647c1.03,0.971 2.036,1.791 3.052,2.369c0.78,0.443 1.538,0.745 2.29,0.203c18.091,-13.057 69.693,-79.006 100.832,-127.256c12.835,-19.887 22.302,-36.526 23.729,-44.89c0.253,-1.486 -0.776,-2.227 -2.129,-2.787c-2.586,-1.071 -5.994,-1.554 -9.899,-1.753c-27.513,-1.401 -76.134,12.722 -76.134,12.722l-9.201,-6.115Zm7.196,-0.848c0,0 102.336,-29.467 97.311,0c-5.025,29.467 -101.194,157.844 -127.463,176.804c-18.889,13.633 -40.014,-57.63 -61.282,-52.67c-71.498,16.675 -82.171,335.807 18.794,295.261c24.446,-9.817 -0.023,-61.109 74.216,-109.079c31.896,-20.61 195.77,-58.099 234.146,-52.159c24.035,3.72 1.939,76.009 26.041,69.899c54.788,-13.889 217.002,-168.817 245.349,-174.552c172.548,-34.912 386.501,-248.074 386.501,-248.074l-21.929,-94.569l-82.234,67.843l-74.011,-67.843l-54.823,67.843l-43.858,-97.996l-48.655,54.823l-104.849,-94.569l104.849,4.112l0,-119.24l100.737,115.128c0,0 47.742,-102.108 41.117,-230.256c-3.776,-73.051 -51.518,-307.129 -106.905,-252.185c-383.83,380.763 -303.842,491.41 -367.313,519.447c-248.938,109.962 -235.738,222.033 -235.738,222.033Z"/><path d="M408.016,912.387c0,0 -13.2,-112.071 235.738,-222.033c63.472,-28.037 -16.516,-138.684 367.313,-519.447c55.387,-54.944 103.128,179.134 106.905,252.185c6.624,128.148 -41.117,230.256 -41.117,230.256l-100.737,-115.128l0,119.24l-104.849,-4.112l104.849,94.569l48.655,-54.823l43.858,97.996l54.823,-67.843l74.011,67.843l82.234,-67.843l21.929,94.569c0,0 -213.954,213.161 -386.501,248.074c-28.347,5.736 -190.561,160.663 -245.349,174.552c-24.102,6.11 -2.006,-66.18 -26.041,-69.899c-38.376,-5.939 -202.25,31.55 -234.146,52.159c-74.239,47.97 -49.77,99.261 -74.216,109.079c-100.965,40.546 -90.293,-278.586 -18.794,-295.261c21.268,-4.96 42.393,66.303 61.282,52.67c26.269,-18.96 122.438,-147.337 127.463,-176.804c5.025,-29.467 -97.311,0 -97.311,0Z" style="fill:#fff;"/></g></svg>