<?xml version="1.0" encoding="UTF-8" standalone="no"?><!DOCTYPE svg PUBLIC "-//W3C//DTD SVG 1.1//EN" "http://www.w3.org/Graphics/SVG/1.1/DTD/svg11.dtd"><svg width="100%" height="100%" viewBox="0 0 2130 2134" version="1.1" xmlns="http://www.w3.org/2000/svg" xmlns:xlink="http://www.w3.org/1999/xlink" xml:space="preserve" xmlns:serif="http://www.serif.com/" style="fill-rule:evenodd;clip-rule:evenodd;stroke-linejoin:round;stroke-miterlimit:2;"><path d="M2099.143,247.118l0,-188.868c0,-13.445 -10.915,-24.36 -24.36,-24.36l-549.362,-0c0,0 184.407,31.402 271.57,63.797c95.62,35.538 302.152,149.431 302.152,149.431Zm-922.892,-213.228l-1118.3,-0c-13.445,0 -24.36,10.915 -24.36,24.36l0,78.355c0,0 163.238,-72.023 376.901,-73.983c64.76,-0.594 160.437,12.13 206.501,19.706c24.496,4.029 69.881,25.751 69.881,25.751c0,0 -332.882,-14.753 -253.876,-3.389c98.314,14.141 596.032,62.306 723.548,97.029c38.212,10.405 21.095,102.316 41.547,111.308c20.452,8.992 48.035,-57.355 81.163,-57.355c36.253,0 128.778,66.012 136.353,57.355c7.575,-8.657 -86.589,-78.184 -90.902,-109.299c-4.313,-31.115 85.65,-76.026 65.024,-77.393c-46.047,-3.051 -97.498,9.197 -160.255,-16.756c-29.149,-12.054 -53.224,-75.689 -53.224,-75.689Zm-1142.66,228.51l0,346.918l209.164,-57.553l277.036,-253.228l-124.573,56.859c0,0 -95.752,68.533 -111.686,73.391c-14.867,4.533 -104.306,-84.229 -145.962,-111.96c-32.565,-21.678 -103.978,-54.426 -103.978,-54.426Zm0,495.128l0,101.251c0,0 5.07,-41.753 21.368,-45.129c36.304,-7.522 196.453,0 196.453,0l-118.15,-40.746l-99.671,-15.375Zm0,742.297l-0,577.04c0,13.445 10.915,24.36 24.36,24.36l381.187,0c0,0 -53.578,-43.567 -72.781,-69.324c-18.968,-25.441 -42.438,-85.22 -42.438,-85.22c0,0 -91.551,-75.183 -125.82,-113.961c-31.572,-35.726 -58.67,-75.963 -79.793,-118.706c-27.418,-55.483 -84.715,-214.19 -84.715,-214.19Zm439.944,601.4l360.285,0c0,0 -158.55,-18.217 -198.229,-24.041c-56.061,-8.229 -135.185,-41.854 -164.498,-42.846c-12.861,-0.435 -11.786,25.743 -11.379,36.891c0.402,11.002 13.821,29.996 13.821,29.996Zm760.921,0l840.326,0c13.445,0 24.36,-10.915 24.36,-24.36l0,-1800.104c0,-0 -92.743,151.804 -142.664,211.165c-45.831,54.496 -108.357,112.718 -156.867,145.001c-39.614,26.363 -134.189,48.698 -134.189,48.698c0,0 -54.83,71.243 -86.574,97.395c-30.803,25.377 -66.601,45.291 -103.888,59.519c-54.83,20.922 -225.092,66.012 -225.092,66.012c0,0 -17.61,210.384 -29.219,277.036c-7.399,42.479 -22.399,83.734 -40.435,122.872c-18.036,39.139 -67.782,111.959 -67.782,111.959c0,0 -15.707,-124.139 -29.712,-166.611c-10.815,-32.797 -34.139,-63.54 -54.317,-88.221c-18.918,-23.139 -70.696,-30.356 -66.755,-59.863c3.941,-29.507 108.126,-122.249 90.4,-117.177c-17.726,5.072 -141.168,100.338 -196.755,147.607c-48.98,41.65 -97.355,85.212 -136.77,136.008c-39.428,50.813 -75.812,113.501 -99.8,168.872c-22.422,51.755 -42.14,115.174 -44.128,163.355c-1.784,43.225 13.081,88.933 32.2,125.727c19.118,36.794 49.749,75.244 82.51,95.036c32.761,19.792 76.361,21.372 114.057,23.717c157.169,9.776 364.497,-163.408 523.342,-233.658c88.595,-39.181 193.173,-66.804 279.026,-81.255c221.154,-37.224 433.257,43.199 465.508,62.858c32.251,19.659 -188.561,28.043 -272.004,55.097c-80.079,25.964 -154.653,86.11 -228.654,107.228c-69.31,19.779 -196.053,5.411 -215.352,19.479c-19.299,14.068 115.448,28.635 99.56,64.93c-19.659,44.91 -180.795,160.917 -217.516,204.53c-12.284,14.59 -2.814,57.148 -2.814,57.148Zm484.085,-1514.49c9.226,-8.767 -12.559,-24.831 -44.266,-48.501c-17.175,-12.822 -37.023,-21.756 -55.602,-32.519c-60.746,-35.192 -92.164,-42.499 -141.689,-49.851c-96.541,-14.333 -137.423,-1.722 -164.182,-0c-3.642,0.234 0.042,9.636 3.624,10.331c24.583,4.77 97.136,6.265 143.872,18.289c46.736,12.024 108.399,26.918 136.544,53.855c57.575,55.105 56.158,60.314 76.441,68.38c15.324,6.094 27.896,-3.486 45.257,-19.984Z" style="fill:#8f2439;"/></svg>